<?xml version="1.0" standalone="no"?>
<!DOCTYPE svg PUBLIC "-//W3C//DTD SVG 20010904//EN"
 "http://www.w3.org/TR/2001/REC-SVG-20010904/DTD/svg10.dtd">
<svg version="1.0" xmlns="http://www.w3.org/2000/svg"
 width="260.000000pt" height="260.000000pt" viewBox="0 0 260.000000 260.000000"
 preserveAspectRatio="xMidYMid meet">
<metadata>
Created by potrace 1.11, written by Peter Selinger 2001-2013
</metadata>
<g transform="translate(0.000000,260.000000) scale(0.100000,-0.100000)"
fill="#000000" stroke="none">
<path d="M490 2214 c-219 -47 -404 -234 -448 -452 -4 -21 -7 -192 -7 -382 0
-334 1 -347 23 -411 47 -135 124 -235 242 -313 102 -68 191 -96 310 -97 213
-3 434 137 532 336 32 66 34 110 5 160 -31 55 -77 78 -146 71 -61 -6 -95 -30
-118 -86 -33 -77 -105 -143 -188 -170 -123 -40 -263 20 -330 142 l-30 53 0
325 c0 320 0 326 23 372 51 103 144 161 257 162 115 1 202 -56 261 -168 36
-70 78 -98 145 -98 80 0 134 50 144 134 5 40 1 57 -30 117 -67 134 -199 246
-345 292 -82 26 -214 32 -300 13z"/>
<path d="M1261 2162 c-44 -22 -72 -60 -81 -109 -7 -39 2 -75 38 -154 11 -24
131 -305 267 -624 136 -319 257 -594 268 -612 57 -85 177 -87 238 -4 12 16
147 322 300 681 298 697 299 701 259 767 -27 44 -61 64 -118 68 -75 5 -139
-47 -167 -135 -7 -24 -236 -559 -276 -645 -10 -22 -40 -91 -67 -153 l-49 -113
-152 358 c-84 197 -156 367 -161 378 -5 11 -29 67 -54 124 -53 126 -83 166
-134 180 -52 15 -72 14 -111 -7z"/>
</g>
</svg>
